<svg width="60" height="60" viewBox="0 0 60 60" fill="none" xmlns="http://www.w3.org/2000/svg">
<circle cx="30" cy="30" r="30" fill="#6261D8"/>
<path fill-rule="evenodd" clip-rule="evenodd" d="M36.0183 42.6667H24.8879C20.7994 42.6667 17.6629 41.19 18.5538 35.2464L19.5912 27.1915C20.1404 24.2258 22.032 23.0908 23.6918 23.0908H37.2632C38.9474 23.0908 40.7292 24.3113 41.3638 27.1915L42.4012 35.2464C43.1579 40.5187 40.1068 42.6667 36.0183 42.6667Z" stroke="white" stroke-width="1.5" stroke-linecap="round" stroke-linejoin="round"/>
<path d="M36.2014 22.7979C36.2014 19.6165 33.6223 17.0373 30.4409 17.0373C28.9089 17.0309 27.4374 17.6349 26.3518 18.7159C25.2662 19.797 24.656 21.2659 24.656 22.7979" stroke="white" stroke-width="1.5" stroke-linecap="round" stroke-linejoin="round"/>
<path d="M34.3951 28.8025H34.3341" stroke="white" stroke-width="1.5" stroke-linecap="round" stroke-linejoin="round"/>
<path d="M26.6209 28.8025H26.5599" stroke="white" stroke-width="1.5" stroke-linecap="round" stroke-linejoin="round"/>
</svg>
