<svg width="40" height="40" viewBox="0 0 40 40" fill="none" xmlns="http://www.w3.org/2000/svg">
<rect x="0.5" y="0.5" width="39" height="39" rx="19.5" stroke="white"/>
<g clip-path="url(#clip0_156_2696)">
<path d="M20 14.2616C21.8702 14.2616 22.0897 14.2699 22.8289 14.3033C23.5125 14.3339 23.8821 14.4478 24.1294 14.5451C24.4573 14.6729 24.6908 14.8229 24.9353 15.0675C25.1798 15.312 25.3327 15.5455 25.4577 15.8734C25.5522 16.1207 25.6689 16.4903 25.6995 17.1739C25.7328 17.9131 25.7412 18.1326 25.7412 20.0028C25.7412 21.873 25.7328 22.0925 25.6995 22.8317C25.6689 23.5153 25.555 23.8849 25.4577 24.1322C25.3299 24.4601 25.1798 24.6935 24.9353 24.9381C24.6908 25.1826 24.4573 25.3354 24.1294 25.4605C23.8821 25.555 23.5125 25.6717 22.8289 25.7023C22.0897 25.7356 21.8702 25.7439 20 25.7439C18.1298 25.7439 17.9103 25.7356 17.1711 25.7023C16.4875 25.6717 16.1179 25.5578 15.8706 25.4605C15.5427 25.3327 15.3093 25.1826 15.0647 24.9381C14.8202 24.6935 14.6673 24.4601 14.5423 24.1322C14.4478 23.8849 14.3311 23.5153 14.3005 22.8317C14.2672 22.0925 14.2588 21.873 14.2588 20.0028C14.2588 18.1326 14.2672 17.9131 14.3005 17.1739C14.3311 16.4903 14.445 16.1207 14.5423 15.8734C14.6701 15.5455 14.8202 15.312 15.0647 15.0675C15.3093 14.8229 15.5427 14.6701 15.8706 14.5451C16.1179 14.4506 16.4875 14.3339 17.1711 14.3033C17.9103 14.2672 18.1326 14.2616 20 14.2616ZM20 13C18.0992 13 17.8603 13.0083 17.1127 13.0417C16.368 13.075 15.8595 13.1945 15.4148 13.3668C14.9536 13.5447 14.5645 13.7864 14.1755 14.1755C13.7864 14.5645 13.5474 14.9563 13.3668 15.4148C13.1945 15.8595 13.075 16.368 13.0417 17.1155C13.0083 17.8603 13 18.0992 13 20C13 21.9008 13.0083 22.1397 13.0417 22.8873C13.075 23.632 13.1945 24.1405 13.3668 24.5879C13.5447 25.0492 13.7864 25.4383 14.1755 25.8273C14.5645 26.2164 14.9563 26.4553 15.4148 26.636C15.8595 26.8083 16.368 26.9277 17.1155 26.9611C17.863 26.9944 18.0992 27.0028 20.0028 27.0028C21.9063 27.0028 22.1425 26.9944 22.89 26.9611C23.6348 26.9277 24.1433 26.8083 24.5907 26.636C25.052 26.4581 25.4411 26.2164 25.8301 25.8273C26.2191 25.4383 26.4581 25.0464 26.6388 24.5879C26.811 24.1433 26.9305 23.6348 26.9639 22.8873C26.9972 22.1397 27.0056 21.9035 27.0056 20C27.0056 18.0965 26.9972 17.8603 26.9639 17.1127C26.9305 16.368 26.811 15.8595 26.6388 15.4121C26.4609 14.9508 26.2191 14.5617 25.8301 14.1727C25.4411 13.7836 25.0492 13.5447 24.5907 13.364C24.1461 13.1917 23.6376 13.0723 22.89 13.0389C22.1397 13.0083 21.9008 13 20 13Z" fill="white"/>
<path d="M20 14.2616C21.8702 14.2616 22.0897 14.2699 22.8289 14.3033C23.5125 14.3339 23.8821 14.4478 24.1294 14.5451C24.4573 14.6729 24.6908 14.8229 24.9353 15.0675C25.1798 15.312 25.3327 15.5455 25.4577 15.8734C25.5522 16.1207 25.6689 16.4903 25.6995 17.1739C25.7328 17.9131 25.7412 18.1326 25.7412 20.0028C25.7412 21.873 25.7328 22.0925 25.6995 22.8317C25.6689 23.5153 25.555 23.8849 25.4577 24.1322C25.3299 24.4601 25.1798 24.6935 24.9353 24.9381C24.6908 25.1826 24.4573 25.3354 24.1294 25.4605C23.8821 25.555 23.5125 25.6717 22.8289 25.7023C22.0897 25.7356 21.8702 25.7439 20 25.7439C18.1298 25.7439 17.9103 25.7356 17.1711 25.7023C16.4875 25.6717 16.1179 25.5578 15.8706 25.4605C15.5427 25.3327 15.3093 25.1826 15.0647 24.9381C14.8202 24.6935 14.6673 24.4601 14.5423 24.1322C14.4478 23.8849 14.3311 23.5153 14.3005 22.8317C14.2672 22.0925 14.2588 21.873 14.2588 20.0028C14.2588 18.1326 14.2672 17.9131 14.3005 17.1739C14.3311 16.4903 14.445 16.1207 14.5423 15.8734C14.6701 15.5455 14.8202 15.312 15.0647 15.0675C15.3093 14.8229 15.5427 14.6701 15.8706 14.5451C16.1179 14.4506 16.4875 14.3339 17.1711 14.3033C17.9103 14.2672 18.1326 14.2616 20 14.2616Z" fill="white"/>
<path d="M19.9997 16.407C18.0156 16.407 16.4038 18.016 16.4038 20.0029C16.4038 21.9898 18.0128 23.5987 19.9997 23.5987C21.9866 23.5987 23.5956 21.9898 23.5956 20.0029C23.5956 18.016 21.9866 16.407 19.9997 16.407ZM19.9997 22.3343C18.7103 22.3343 17.6654 21.2895 17.6654 20.0001C17.6654 18.7107 18.7103 17.6658 19.9997 17.6658C21.2891 17.6658 22.3339 18.7107 22.3339 20.0001C22.3339 21.2895 21.2891 22.3343 19.9997 22.3343Z" fill="#626262"/>
<path d="M23.7377 17.1015C24.2011 17.1015 24.5769 16.7258 24.5769 16.2623C24.5769 15.7988 24.2011 15.4231 23.7377 15.4231C23.2742 15.4231 22.8984 15.7988 22.8984 16.2623C22.8984 16.7258 23.2742 17.1015 23.7377 17.1015Z" fill="#626262"/>
</g>
<defs>
<clipPath id="clip0_156_2696">
<rect width="14" height="14" fill="white" transform="translate(13 13)"/>
</clipPath>
</defs>
</svg>
