<svg width="60" height="60" viewBox="0 0 60 60" fill="none" xmlns="http://www.w3.org/2000/svg">
<circle cx="30" cy="30" r="30" fill="#FFB444"/>
<path fill-rule="evenodd" clip-rule="evenodd" d="M20.3932 23.408C20.3932 21.7427 21.7425 20.3933 23.4079 20.392H24.7799C25.5759 20.392 26.3385 20.076 26.9039 19.516L27.8625 18.556C29.0372 17.3747 30.9465 17.3693 32.1279 18.544L32.1292 18.5453L32.1412 18.556L33.1012 19.516C33.6665 20.0773 34.4292 20.392 35.2252 20.392H36.5959C38.2612 20.392 39.6119 21.7413 39.6119 23.408V24.7773C39.6119 25.5733 39.9265 26.3373 40.4879 26.9027L41.4479 27.8627C42.6292 29.0373 42.6359 30.9467 41.4612 32.128L41.4599 32.1293L41.4479 32.1413L40.4879 33.1013C39.9265 33.6653 39.6119 34.428 39.6119 35.224V36.596C39.6119 38.2613 38.2625 39.6107 36.5972 39.6107H35.2225C34.4265 39.6107 33.6625 39.9267 33.0985 40.488L32.1385 41.4467C30.9652 42.628 29.0572 42.6347 27.8759 41.4627C27.8745 41.4613 27.8732 41.46 27.8719 41.4587L27.8599 41.4467L26.9012 40.488C26.3372 39.9267 25.5732 39.612 24.7772 39.6107H23.4079C21.7425 39.6107 20.3932 38.2613 20.3932 36.596V35.2213C20.3932 34.4253 20.0772 33.6627 19.5159 33.0987L18.5572 32.1387C17.3759 30.9653 17.3692 29.0573 18.5425 27.876C18.5425 27.8747 18.5439 27.8733 18.5452 27.872L18.5572 27.86L19.5159 26.9C20.0772 26.3347 20.3932 25.572 20.3932 24.7747V23.408Z" stroke="white" stroke-width="1.5" stroke-linecap="round" stroke-linejoin="round"/>
<path d="M26.5755 33.429L33.4288 26.5756" stroke="white" stroke-width="1.5" stroke-linecap="round" stroke-linejoin="round"/>
<path d="M33.3273 33.3334H33.3386" stroke="white" stroke-width="2" stroke-linecap="round" stroke-linejoin="round"/>
<path d="M26.6606 26.6667H26.6719" stroke="white" stroke-width="2" stroke-linecap="round" stroke-linejoin="round"/>
</svg>
